<?xml version="1.0" encoding="UTF-8" standalone="no"?>
<!-- Created using Krita: http://krita.org -->

<svg
   xmlns:dc="http://purl.org/dc/elements/1.1/"
   xmlns:cc="http://creativecommons.org/ns#"
   xmlns:rdf="http://www.w3.org/1999/02/22-rdf-syntax-ns#"
   xmlns:svg="http://www.w3.org/2000/svg"
   xmlns="http://www.w3.org/2000/svg"
   xmlns:sodipodi="http://sodipodi.sourceforge.net/DTD/sodipodi-0.dtd"
   xmlns:inkscape="http://www.inkscape.org/namespaces/inkscape"
   width="720pt"
   height="600pt"
   viewBox="0 0 720 600"
   version="1.1"
   id="svg498"
   sodipodi:docname="avatar_3.svg"
   inkscape:version="0.92.2 2405546, 2018-03-11">
  <metadata
     id="metadata502">
    <rdf:RDF>
      <cc:Work
         rdf:about="">
        <dc:format>image/svg+xml</dc:format>
        <dc:type
           rdf:resource="http://purl.org/dc/dcmitype/StillImage" />
        <dc:title></dc:title>
      </cc:Work>
    </rdf:RDF>
  </metadata>
  <sodipodi:namedview
     pagecolor="#ffffff"
     bordercolor="#666666"
     borderopacity="1"
     objecttolerance="10"
     gridtolerance="10"
     guidetolerance="10"
     inkscape:pageopacity="0"
     inkscape:pageshadow="2"
     inkscape:window-width="1920"
     inkscape:window-height="1016"
     id="namedview500"
     showgrid="false"
     inkscape:zoom="0.72920387"
     inkscape:cx="354.60468"
     inkscape:cy="376.65716"
     inkscape:window-x="0"
     inkscape:window-y="27"
     inkscape:window-maximized="1"
     inkscape:current-layer="svg498" />
  <defs
     id="defs415">
    <radialGradient
       id="gradient0"
       gradientUnits="objectBoundingBox"
       cx="0.590356996374339"
       cy="0.404134188455847"
       fx="0.590360750060955"
       fy="0.402460405431713"
       r="0.454124396689977"
       spreadMethod="pad">
      <stop
         stop-color="#737373"
         offset="0.0460992902517319"
         stop-opacity="1"
         id="stop390" />
      <stop
         stop-color="#5c5c5c"
         offset="0.815602838993073"
         stop-opacity="0"
         id="stop392" />
    </radialGradient>
    <radialGradient
       id="gradient1"
       gradientUnits="objectBoundingBox"
       cx="0.660293661314613"
       cy="0.403280888991928"
       fx="0.728765631897065"
       fy="0.310502698618317"
       r="0.459364849567209"
       spreadMethod="pad">
      <stop
         stop-color="#737373"
         offset="0"
         stop-opacity="1"
         id="stop395" />
      <stop
         stop-color="#5c5c5c"
         offset="0.815602838993073"
         stop-opacity="0"
         id="stop397" />
    </radialGradient>
    <radialGradient
       id="gradient2"
       gradientUnits="objectBoundingBox"
       cx="0.744499141112838"
       cy="0.295113088283395"
       fx="0.918542142083513"
       fy="0.179911617242581"
       r="1.01649428435755"
       spreadMethod="pad">
      <stop
         stop-color="#b7b7b7"
         offset="0"
         stop-opacity="1"
         id="stop400" />
      <stop
         stop-color="#5c5c5c"
         offset="0.836879432201385"
         stop-opacity="0"
         id="stop402" />
    </radialGradient>
    <radialGradient
       id="gradient3"
       gradientUnits="objectBoundingBox"
       cx="0.522291913823102"
       cy="0.175702695338595"
       fx="0.441044450700591"
       fy="0.127838584328474"
       r="1.19657905805192"
       spreadMethod="pad">
      <stop
         stop-color="#b7b7b7"
         offset="0"
         stop-opacity="1"
         id="stop405" />
      <stop
         stop-color="#5c5c5c"
         offset="0.478723404255319"
         stop-opacity="0"
         id="stop407" />
    </radialGradient>
    <radialGradient
       id="gradient4"
       gradientUnits="objectBoundingBox"
       cx="0.642540100022487"
       cy="0.690244068257179"
       fx="0.95564323967064"
       fy="-0.360719821195172"
       r="1.09771007229988"
       spreadMethod="pad">
      <stop
         stop-color="#b7b7b7"
         offset="0"
         stop-opacity="1"
         id="stop410" />
      <stop
         stop-color="#5c5c5c"
         offset="0.691489361702128"
         stop-opacity="0"
         id="stop412" />
    </radialGradient>
  </defs>
  <path
     id="shape0"
     transform="translate(29.4365217391304, 34.6591304347826)"
     fill="#d6cb5b"
     fill-rule="evenodd"
     d="M601.816 338.685L630.678 352.49L657.412 357.505L633.652 388.891L609.203 395.568L586.038 385.792L566.786 413.408L583.409 439.835L558.083 430.228L507.965 470.686L488.901 482.716L491.656 514.553L471.59 490.746L382.842 508.785L316.696 508.222L291.339 540.058L285.704 503.038L216.021 475.229L182.932 455L139.137 473.99L161.551 432.884L132.323 387.048L112.727 343.097L93.6939 339.237L109.033 328.587L109.158 324.481L106.654 316.339L77.1339 312.282L49.5235 321.579L38.8487 334.257L17.593 312.873L0 274.331L3.16174 225.77L13.7426 196.61L22.1635 186.017L37.5339 214.303L54.8765 230.588L77.4783 242.618L101.739 247.802L104.024 226.08L112.79 180.72L123.715 154.456L105.903 130.818L132.417 139.552L164.723 100.052L213.057 58.9179L281.27 43.4786L268.779 37.4995L275.197 0L295.763 35.809L360.689 34.5412L462.49 45.36L477.078 24.0605L478.143 51.9527L514.8 72.2379L558.991 107.413L594.616 96.791L578.275 125.275L591.391 162.436L617.823 176.04L632.035 232.05L626.212 275.635L607.064 296.064L601.816 338.685"
     style="fill:#ffe936;fill-opacity:1" />
  <g
     id="g1363"
     style="fill:#d9ab14;fill-opacity:1">
    <ellipse
       style="fill:#d9ab14;fill-opacity:1"
       fill-rule="evenodd"
       fill="#bfb34f"
       cy="9.23999999999999"
       cx="9.24000000000001"
       ry="9.23999999999999"
       rx="9.24000000000001"
       transform="translate(552.546406549885, 157.402028910894)"
       id="shape01" />
    <ellipse
       style="fill:#d9ab14;fill-opacity:1"
       fill-rule="evenodd"
       fill="#bfb34f"
       cy="2.75999999999999"
       cx="2.88"
       ry="2.75999999999999"
       rx="2.88"
       transform="translate(576.72, 179.28)"
       id="shape11" />
    <ellipse
       style="fill:#d9ab14;fill-opacity:1"
       fill-rule="evenodd"
       fill="#bfb34f"
       cy="11.76"
       cx="12"
       ry="11.76"
       rx="12"
       transform="translate(483.6, 222.24)"
       id="shape21" />
    <ellipse
       style="fill:#d9ab14;fill-opacity:1"
       fill-rule="evenodd"
       fill="#bfb34f"
       cy="3.23999999999999"
       cx="3.12"
       ry="3.23999999999999"
       rx="3.12"
       transform="translate(546.48, 243.6)"
       id="shape31" />
    <ellipse
       style="fill:#d9ab14;fill-opacity:1"
       fill-rule="evenodd"
       fill="#bfb34f"
       cy="5.40000000000001"
       cx="5.51999999999998"
       ry="5.40000000000001"
       rx="5.51999999999998"
       transform="translate(519.12, 258.72)"
       id="shape4" />
    <ellipse
       style="fill:#d9ab14;fill-opacity:1"
       fill-rule="evenodd"
       fill="#bfb34f"
       cy="5.52000000000001"
       cx="5.88"
       ry="5.52000000000001"
       rx="5.88"
       transform="translate(553.44, 282.72)"
       id="shape5" />
    <ellipse
       style="fill:#d9ab14;fill-opacity:1"
       fill-rule="evenodd"
       fill="#bfb34f"
       cy="6.35999999999999"
       cx="6.59999999999999"
       ry="6.35999999999999"
       rx="6.59999999999999"
       transform="translate(487.2, 292.56)"
       id="shape6" />
    <ellipse
       style="fill:#d9ab14;fill-opacity:1"
       fill-rule="evenodd"
       fill="#bfb34f"
       cy="4.67999999999998"
       cx="4.56"
       ry="4.67999999999998"
       rx="4.56"
       transform="translate(459.36, 273.12)"
       id="shape7" />
    <ellipse
       style="fill:#d9ab14;fill-opacity:1"
       fill-rule="evenodd"
       fill="#bfb34f"
       cy="5.04000000000001"
       cx="5.16"
       ry="5.04000000000001"
       rx="5.16"
       transform="translate(442.8, 144.48)"
       id="shape8" />
    <ellipse
       style="fill:#d9ab14;fill-opacity:1"
       fill-rule="evenodd"
       fill="#bfb34f"
       cy="7.44"
       cx="7.19999999999999"
       ry="7.44"
       rx="7.19999999999999"
       transform="translate(480.48, 101.52)"
       id="shape9" />
    <ellipse
       style="fill:#d9ab14;fill-opacity:1"
       fill-rule="evenodd"
       fill="#bfb34f"
       cy="4.2"
       cx="4.19999999999999"
       ry="4.2"
       rx="4.19999999999999"
       transform="translate(505.68, 126.96)"
       id="shape10" />
    <ellipse
       style="fill:#d9ab14;fill-opacity:1"
       fill-rule="evenodd"
       fill="#bfb34f"
       cy="11.04"
       cx="11.4"
       ry="11.04"
       rx="11.4"
       transform="translate(398.4, 124.32)"
       id="ellipse434" />
    <ellipse
       style="fill:#d9ab14;fill-opacity:1"
       fill-rule="evenodd"
       fill="#bfb34f"
       cy="7.2"
       cx="7.56"
       ry="7.2"
       rx="7.56"
       transform="translate(398.16, 82.32)"
       id="shape12" />
    <ellipse
       style="fill:#d9ab14;fill-opacity:1"
       fill-rule="evenodd"
       fill="#bfb34f"
       cy="10.44"
       cx="11.04"
       ry="10.44"
       rx="11.04"
       transform="translate(311.76, 92.88)"
       id="shape13" />
    <ellipse
       style="fill:#d9ab14;fill-opacity:1"
       fill-rule="evenodd"
       fill="#bfb34f"
       cy="4.32"
       cx="4.44"
       ry="4.32"
       rx="4.44"
       transform="translate(340.8, 117.36)"
       id="shape14" />
    <ellipse
       style="fill:#d9ab14;fill-opacity:1"
       fill-rule="evenodd"
       fill="#bfb34f"
       cy="3.95999999999999"
       cx="4.08000000000001"
       ry="3.95999999999999"
       rx="4.08000000000001"
       transform="translate(318.48, 149.76)"
       id="shape15" />
    <ellipse
       style="fill:#d9ab14;fill-opacity:1"
       fill-rule="evenodd"
       fill="#bfb34f"
       cy="6.60000000000001"
       cx="6.72000000000003"
       ry="6.60000000000001"
       rx="6.72000000000003"
       transform="translate(345.12, 169.68)"
       id="shape16" />
    <ellipse
       style="fill:#d9ab14;fill-opacity:1"
       fill-rule="evenodd"
       fill="#bfb34f"
       cy="11.52"
       cx="12.36"
       ry="11.52"
       rx="12.36"
       transform="translate(225.6, 119.04)"
       id="shape17" />
    <ellipse
       style="fill:#d9ab14;fill-opacity:1"
       fill-rule="evenodd"
       fill="#bfb34f"
       cy="4.56"
       cx="4.44"
       ry="4.56"
       rx="4.44"
       transform="translate(196.08, 157.68)"
       id="shape18" />
    <ellipse
       style="fill:#d9ab14;fill-opacity:1"
       fill-rule="evenodd"
       fill="#bfb34f"
       cy="12.36"
       cx="12.84"
       ry="12.36"
       rx="12.84"
       transform="translate(201.12, 203.04)"
       id="shape19" />
    <circle
       style="fill:#d9ab14;fill-opacity:1"
       fill-rule="evenodd"
       fill="#bfb34f"
       cy="2.28"
       cx="2.28"
       r="2.28"
       transform="translate(226.56, 235.44)"
       id="shape20" />
    <circle
       style="fill:#d9ab14;fill-opacity:1"
       fill-rule="evenodd"
       fill="#bfb34f"
       cy="4.44"
       cx="4.44"
       r="4.44"
       transform="translate(175.68, 212.16)"
       id="circle445" />
    <ellipse
       style="fill:#d9ab14;fill-opacity:1"
       cy="10.2"
       cx="9.84"
       ry="10.2"
       rx="9.84"
       id="shape22"
       fill-rule="evenodd"
       fill="#bfb34f"
       transform="translate(148.32, 231.6)" />
    <ellipse
       style="fill:#d9ab14;fill-opacity:1"
       cy="8.16"
       cx="8.40000000000001"
       ry="8.16"
       rx="8.40000000000001"
       id="shape23"
       fill-rule="evenodd"
       fill="#bfb34f"
       transform="translate(158.4, 300)" />
    <ellipse
       style="fill:#d9ab14;fill-opacity:1"
       fill-rule="evenodd"
       fill="#bfb34f"
       cy="11.16"
       cx="11.4"
       ry="11.16"
       rx="11.4"
       transform="translate(199.68, 302.16)"
       id="shape24" />
    <ellipse
       style="fill:#d9ab14;fill-opacity:1"
       fill-rule="evenodd"
       fill="#bfb34f"
       cy="5.52000000000001"
       cx="5.52"
       ry="5.52000000000001"
       rx="5.52"
       transform="translate(222.24, 290.64)"
       id="shape25" />
    <circle
       style="fill:#d9ab14;fill-opacity:1"
       fill-rule="evenodd"
       fill="#bfb34f"
       cy="6"
       cx="6"
       r="6"
       transform="translate(303.6, 359.76)"
       id="shape28" />
    <ellipse
       style="fill:#d9ab14;fill-opacity:1"
       fill-rule="evenodd"
       fill="#bfb34f"
       cy="9.24000000000001"
       cx="9.59999999999999"
       ry="9.24000000000001"
       rx="9.59999999999999"
       transform="translate(389.52, 367.68)"
       id="shape29" />
    <ellipse
       style="fill:#d9ab14;fill-opacity:1"
       fill-rule="evenodd"
       fill="#bfb34f"
       cy="4.31999999999999"
       cx="4.44"
       ry="4.31999999999999"
       rx="4.44"
       transform="translate(430.08, 355.44)"
       id="shape30" />
    <circle
       style="fill:#d9ab14;fill-opacity:1"
       fill-rule="evenodd"
       fill="#bfb34f"
       cy="3"
       cx="3"
       r="3"
       transform="translate(607.68, 341.04)"
       id="circle456" />
    <ellipse
       style="fill:#d9ab14;fill-opacity:1"
       fill-rule="evenodd"
       fill="#bfb34f"
       cy="6.72"
       cx="6.83999999999997"
       ry="6.72"
       rx="6.83999999999997"
       transform="translate(600, 374.4)"
       id="shape32" />
  </g>
  <ellipse
     id="ellipse460"
     rx="5.40000000000001"
     ry="5.28"
     cx="5.40000000000001"
     cy="5.28"
     style="fill:#d9ab14;fill-opacity:1"
     fill-rule="evenodd"
     fill="#a19e4d"
     transform="translate(138.48, 284.64)" />
  <circle
     id="ellipse462"
     cx="4.08"
     cy="4.08000000000001"
     style="fill:#d9ab14;fill-opacity:1"
     fill-rule="evenodd"
     fill="#a19e4d"
     transform="translate(141.6, 326.16)"
     ry="4.08000000000001"
     rx="4.08" />
  <g
     id="g911"
     style="fill:#000000;fill-opacity:0.12301587">
    <path
       style="fill:#000000;fill-opacity:0.12301587"
       transform="translate(31.8991304347826, 166.609565217391)"
       d="M105.918 0L128.739 6.71948L135.83 8.32539C130.913 24.4663 127.798 36.0124 126.484 42.9636C124.955 51.0569 123.293 64.0916 122.836 83.2993C122.775 85.8215 122.771 90.1451 122.823 96.2703L111.177 97.5803L123.732 107.503C125.068 119.724 126.52 128.721 128.089 134.493C133.196 153.286 138.06 164.934 141.99 172.943C148.672 186.558 156.332 198.913 164.97 210.009L136.957 215.089L145.31 224.807C152.262 231.913 158.021 236.843 162.587 239.599C176.565 248.032 189.801 249.447 196.72 249.062C206.499 248.519 218.674 245.822 233.244 240.974L218.321 258.099C227.478 264.464 237.35 270.162 247.938 275.192C259.523 280.697 279.81 290.176 308.759 297.292C349.47 307.299 379.629 308.71 397.663 309.036C439.511 309.792 470.157 305.157 487.769 301.809C510.879 297.415 534.357 291.631 558.204 284.457L537.621 319.905L487.377 348.558L489.162 383.973L468.454 355.193L421.873 370.252L345.569 376.338L311.995 374.816L290.536 407.695L282.224 370.928L228.694 350.347L182.254 320.215L137.223 342.74L159.01 301.451L137.066 266.965L110.723 211.688L89.8278 206.743L107.437 196.22L104.76 184.852L82.9252 180.795L48.7878 187.303L35.593 203.447L10.9878 174.963L0 133.39L2.33345 103.286C10.123 108.963 18.2381 113.679 26.6788 117.434C32.8474 120.179 42.9758 124.63 58.5263 127.305C73.4868 129.879 84.9911 129.076 91.5101 128.906C93.0145 128.866 95.442 128.626 98.7926 128.185L99.2188 113.717L104.917 67.0007L120.318 21.5703L105.918 0"
       id="path418"
       fill-rule="evenodd"
       fill="#b2b34f" />
    <path
       inkscape:connector-curvature="0"
       style="fill:#000000;fill-opacity:0.12301587;fill-rule:evenodd"
       d="m 678.83432,401.96872 c -6.1483,3.7309 -10.6431,6.16559 -13.4844,7.30408 -3.475,1.39242 -10.1663,4.38613 -18.7982,4.73323 -7.9002,0.3177 -12.321,-1.3155 -16.3331,-2.7047 -1.12552,-0.38972 -3.00639,-1.2232 -5.6426,-2.50044 l -5.22,10.30464 19.2835,11.1216 24.8948,-5.839 15.5817,-16.30567 -0.1409,-6.12783 -0.1408,0.0141"
       id="shape1" />
    <path
       style="fill:#000000;fill-opacity:0.12301587"
       d="M5.50174 0L22.2417 11.5231L11.4809 9.05087L0 3.37383L5.50174 0"
       transform="translate(589.41652173913, 462.059217391304)"
       id="shape2"
       fill-rule="evenodd"
       fill="#b2b34f" />
    <path
       style="fill:#000000;fill-opacity:0.12301587"
       d="M7.46609 0L12.1148 40.3873L0 40.5423L7.46609 0"
       transform="translate(297.584347826087, 35.0566956521739)"
       id="shape3"
       fill-rule="evenodd"
       fill="#b2b34f" />
  </g>
  <g
     id="g1330"
     style="fill:#6e6011;fill-opacity:1">
    <path
       style="fill:#6e6011;fill-opacity:1"
       d="M0.914663 229.662C-0.0392882 215.031 -0.247044 204.227 0.291395 197.249C2.05158 174.439 6.35862 159.395 9.44792 149.873C15.6821 130.658 21.9442 117.682 26.0262 110.181C32.9667 97.4282 42.7787 83.7126 47.2349 77.8107C53.6338 69.3357 65.5724 56.062 85.9879 42.3239C113.549 23.7772 138.059 16.2413 151.852 12.2206C167.502 7.65841 188.336 2.99516 221.968 0.940251C257.145 -1.20904 283.238 0.817963 298.28 2.14703C330.063 4.95523 352.483 10.4931 365.428 14.7807C374.721 17.8588 390.521 23.9641 410.571 35.3098C431.082 46.9159 445.589 58.8927 452.567 65.5681C459.594 72.2905 467.122 79.1469 476.595 93.3742C486.538 108.308 492.748 120.849 495.093 127.713C494.575 134.038 486.13 138.832 484.324 138.652C483.009 133.711 475.443 113.594 461.021 95.4741C453.53 86.0624 438.903 68.8268 414.834 54.1211C399.354 44.6633 368.292 26.8063 329.814 20.3724C287.928 13.3685 254.525 13.2482 236.128 14.128C217.13 15.0364 183.414 15.6761 141.589 29.8243C113.325 39.3852 90.8844 55.4034 80.1884 64.1442C60.1933 80.4843 48.2351 96.2563 42.1319 105.25C35.9581 114.347 27.1861 130.929 17.634 154.261C14.1666 162.731 9.40954 177.468 5.01053 198.355C3.70731 204.543 2.34602 214.983 0.926653 229.674"
       stroke-linejoin="bevel"
       stroke-linecap="square"
       stroke-width="0.24"
       stroke="#001974"
       fill-rule="evenodd"
       fill="#566234"
       transform="translate(129.765126875276, 63.2620965179785)"
       id="shape03" />
    <path
       style="fill:#6e6011;fill-opacity:1"
       d="M8.54717 10.4548C4.99501 11.817 -0.285988 19.461 0.0120871 21.7058C2.46018 18.5849 5.54607 15.7898 9.34553 13.6113C12.1655 13.0775 16.538 12.5838 20.635 13.7531C24.4041 14.8288 26.9038 16.9795 28.2017 18.3676C31.5112 21.907 37.4766 28.9606 40.8377 39.7567C50.7808 71.6939 48.6876 98.6709 45.7505 112.487C45.3495 114.373 44.0083 118.12 41.2192 121.819C38.7194 125.135 36.2972 126.786 34.8165 127.749C30.9475 130.265 28.0539 131.169 25.5251 131.678C22.6907 131.267 22.0446 130.947 19.6463 130.005C17.0868 128.999 16.9447 128.721 14.3753 127.124C15.5592 129.346 18.1727 131.619 19.3475 132.445C20.3163 133.126 22.8323 134.428 25.574 135.091C28.2027 136.284 31.4693 142.395 37.2745 142.031C41.223 139.879 43.278 138.583 47.3517 134.833C51.5663 130.953 53.614 127.12 54.8501 125.019C57.0581 121.265 58.8564 117.004 59.9117 109.678C61.0422 101.83 61.0836 90.7055 60.7968 85.9972C59.9515 72.1179 59.7802 70.1136 57.2021 56.1862C53.7464 37.5183 51.959 32.0918 49.5325 26.3219C45.1136 15.8142 40.5773 11.1638 37.4497 8.51024C35.6941 7.02075 32.786 4.60457 28.1786 2.28334C23.8409 0.0979734 20.2222 -0.102932 17.6836 0.0328032C12.3026 1.7253 10.2784 8.15117 8.46901 10.4558"
       fill-rule="evenodd"
       fill="#566234"
       transform="translate(605.70142291116, 190.321940972967)"
       id="path467" />
    <path
       style="fill:#6e6011;fill-opacity:1"
       d="M495.958 0C495.305 8.57858 494.766 14.6828 494.343 18.3125C492.518 33.9827 491.259 40.4993 490.052 45.9402C485.864 64.8166 480.15 77.6999 476.706 85.2239C472.826 93.7003 465.741 108.178 452.581 125.487C446.605 133.347 436.403 147.248 418.305 161.287C409.005 168.502 392.03 180.564 366.317 190.301C328.583 204.589 298.351 207.516 281.08 209.287C266.141 210.82 234.542 212.396 205.536 208.082C169.361 202.703 132.976 190.125 110.293 177.112C98.191 170.169 77.4327 156.479 55.8243 131.745C40.1242 113.774 32.2507 98.2128 27.0609 89.4755C20.6012 78.6003 11.8338 56.3837 7.1826 41.9997C4.20555 32.7932 1.81685 23.5106 0.0165142 14.152C-0.139544 17.0596 0.810456 24.3795 2.86651 36.1115C4.97128 48.1215 7.46486 56.1757 9.07912 60.9861C12.5157 71.2267 18.1499 88.9508 30.5956 110.777C44.2158 134.664 57.4073 150.137 65.5861 158.503C86.6422 180.043 106.862 189.933 118.249 195.553C132.364 202.518 157.631 213.526 193.785 220.489C223.43 226.199 245.902 224.834 258.89 224.47C291.74 223.549 312.538 219.614 329.01 215.919C338.335 213.827 355.168 210.251 376.185 201.672C388.116 196.803 408.685 187.552 431.833 168.573C439.73 162.099 451.709 150.602 465.666 131.104C478.042 113.816 485.784 98.963 489.53 90.7612C493.71 81.6115 500.681 65.9019 504.823 42.5285C507.318 28.445 508.816 16.1173 509.315 5.54557L495.958 0"
       fill-rule="evenodd"
       fill="#566234"
       transform="translate(134.391311920269, 324.604173913043)"
       id="path469" />
    <path
       style="fill:#6e6011;fill-opacity:1"
       d="M18.4257 0.0758141C24.4811 3.24335 32.4517 6.34619 42.3376 9.38435C45.7681 10.4386 52.5104 12.321 60.8263 13.6958C64.1094 14.2386 69.7023 15.0055 77.605 15.9968C74.1264 23.831 70.098 30.7165 65.52 36.6532C57.9206 46.5079 51.3495 53.1387 47.027 56.1349C44.1915 58.1003 38.6201 62.3996 30.757 62.8047C24.8969 63.1067 20.7397 62.3241 13.6758 59.7884C10.6828 58.714 6.12421 56.3598 0 52.7259L3.6 43.3017C7.65144 45.7507 10.595 47.3862 12.4307 48.2082C18.1785 50.7822 22.926 52.536 25.5072 52.5512C28.8442 52.5708 35.5173 51.6726 42.0314 47.1044C48.8392 42.3301 51.5426 37.5113 53.6064 34.8444C55.3405 32.6036 57.7563 28.6189 60.8539 22.8903C53.9927 21.6704 49.0491 20.6427 46.0232 19.8074C42.1054 18.7259 35.3006 16.6071 26.5043 13.0416C24.0881 12.0622 20.1437 10.2256 14.6713 7.53179L18.4423 0"
       fill-rule="evenodd"
       fill="#566234"
       transform="translate(617.514782608695, 372.192294932528)"
       id="shape33" />
    <path
       style="fill:#6e6011;fill-opacity:1"
       d="M13.5404 0.021273C18.6489 8.80343 23.0679 16.8792 30.4575 28.812C17.1095 23.6064 6.84056 20.135 0 18.5948L3.39684 13.4288C10.178 16.4695 16.3874 19.2448 23.2247 22.7273C19.1321 16.8513 15.1573 11.0623 10.4802 4.38418L13.5783 0"
       fill-rule="evenodd"
       fill="#566234"
       transform="translate(586.455652173913, 449.553652173913)"
       id="shape41" />
    <path
       style="fill:#6e6011;fill-opacity:1"
       d="M24.7254 0C24.2845 12.9054 24.7951 27.4976 24.9825 41.5169C17.4991 31.5696 9.13359 19.9844 0 9.17406L6.82881 6.73362C11.3576 13.6496 15.7995 20.696 20.2712 27.6976C19.251 19.4185 18.2129 11.1268 17.476 3.04806L24.7254 0"
       fill-rule="evenodd"
       fill="#566234"
       transform="translate(498.499212978202, 517.030698574261)"
       id="shape51" />
    <path
       style="fill:#6e6011;fill-opacity:1"
       d="M38.6139 6.67017C27.8185 17.7759 16.8886 28.8536 7.15304 42.3806C5.52337 28.4319 3.06471 10.329 0 0L8.09217 1.57774C8.94833 11.3252 9.52624 21.1498 10.1191 30.9702C15.9219 22.3832 22.296 13.9333 28.7139 5.49391L38.6609 6.67017"
       fill-rule="evenodd"
       fill="#566234"
       transform="translate(311.900869565217, 539.61547826087)"
       id="shape61" />
    <path
       style="fill:#6e6011;fill-opacity:1"
       d="M26.2859 0C18.8106 17.1279 8.92729 33.4245 0 49.3965C25.354 37.0212 39.2612 32.5532 52.6715 28.4286L45.3225 21.954C34.7207 26.4549 22.4528 32.0783 10.7136 39.4953C18.6991 28.532 26.2506 18.1117 33.384 6.27579L26.5737 0.109571"
       fill-rule="evenodd"
       fill="#566234"
       transform="translate(161.010058702563, 465.968857741034)"
       id="shape71" />
    <path
       style="fill:#6e6011;fill-opacity:1"
       d="M22.5561 0.00996098C15.0367 5.32452 7.5519 9.9121 0 14.876C10.1608 16.9721 20.6131 19.7769 29.241 22.3226L26.6622 15.2744C21.3497 14.2771 16.0427 13.3699 10.7302 12.6099L23.7846 5.99577L22.5672 0"
       fill-rule="evenodd"
       fill="#566234"
       transform="translate(115.720791680757, 360.107225166588)"
       id="shape81" />
    <path
       style="fill:#6e6011;fill-opacity:1"
       d="M112.141 146.59C108.76 144.759 101.962 143.291 91.7472 142.186C80.9633 141.02 71.3473 144.486 66.9923 146.595C58.6953 150.612 55.786 154.964 51.9014 159.906C50.3128 161.927 48.2761 165.889 45.7912 171.792C39.2444 167.648 32.8218 162.121 26.5234 155.212C19.8236 147.862 15.4297 142.149 9.28129 128.803C7.03874 123.936 3.32621 115.197 1.42872 102.871C-1.02292 86.9459 0.293184 76.2379 0.906018 69.6828C1.48142 63.5281 3.07951 50.9975 6.58445 38.7985C9.18456 29.7487 12.5502 22.8443 14.3909 18.947C16.6827 14.0945 20.8514 7.77885 26.897 0C30.2529 9.89952 33.5555 17.5475 36.805 22.9439C39.0428 26.6603 42.6245 33.2299 49.3189 40.8141C56.8973 49.3997 63.5269 54.4194 67.5478 57.2096C71.1734 59.7255 78.0017 63.6153 87.5193 67.4352C92.0538 69.2551 98.2542 70.4913 106.12 71.1438L106.071 76.0197C99.274 75.6419 94.5862 75.176 92.0073 74.622C83.0511 72.6981 77.7993 70.8103 74.2312 69.2539C68.7853 66.8785 60.3432 63.5171 48.891 53.993C45.5491 51.2138 39.0829 46.3911 33.0087 38.1871C30.0991 34.2574 27.1071 29.5342 24.0328 24.0176C19.693 33.3075 16.6512 41.2196 14.9074 47.7539C13.1894 54.1915 10.8739 65.1116 10.6353 81.2601C10.5261 88.6435 12.0691 105.255 17.1044 117.907C21.2184 128.244 25.4086 135.208 28.1647 139.118C30.553 142.507 35.1086 147.521 41.8316 154.161C45.6775 148.13 50.4757 143.69 56.226 140.842C60.3078 138.821 66.6767 136.139 78.9196 135.413C89.4107 134.79 95.7281 136.431 101.725 137.858C104.599 138.542 107.698 139.588 111.024 140.997L112.141 146.59"
       fill-rule="evenodd"
       fill="#566234"
       transform="translate(24.6487648246074, 208.534582914945)"
       id="shape91" />
    <path
       style="fill:#6e6011;fill-opacity:1"
       d="M0 11.0019C19.9943 6.18436 31.6587 2.40232 38.1506 0C32.1544 12.0637 25.1935 26.4531 20.3038 39.2905L15.3122 32.6497C20.0992 24.0325 24.8209 15.2436 29.9604 7.55301C21.1805 11.3458 11.7287 14.5201 2.49025 17.8377L0.550617 11.0509"
       fill-rule="evenodd"
       fill="#566234"
       transform="translate(589.387644254611, 127.140873634651)"
       id="shape101" />
    <path
       style="fill:#6e6011;fill-opacity:1"
       d="M19.0974 0C13.5347 7.78914 6.94186 15.8939 0 24.1056L5.44534 25.1963C9.3308 20.023 13.021 14.3789 16.3581 8.98481L15.7218 29.116L20.6082 30.8093C19.9656 20.5208 19.445 10.2487 19.0974 0"
       fill-rule="evenodd"
       fill="#566234"
       transform="translate(488.966183816883, 54.485651867733)"
       id="shape111" />
    <path
       style="fill:#6e6011;fill-opacity:1"
       d="M9.52265 0.0493043C6.92702 16.8809 4.41987 33.7701 0 49.4159L9.10005 47.6564C10.0158 36.5669 11.0952 25.0782 11.6357 14.207C15.8133 24.7767 20.4789 34.4946 25.1827 44.6066L33.8231 43.8677C26.7965 32.9394 19.2529 20.1646 9.64005 0"
       fill-rule="evenodd"
       fill="#566234"
       transform="translate(294.040824386766, 24.4181739130435)"
       id="shape121" />
    <path
       style="fill:#6e6011;fill-opacity:1"
       d="M18.5635 28.2303C14.0189 19.089 6.28774 8.89958 0 0C10.703 3.08152 21.9096 6.21078 29.2304 7.76191L27.0313 12.474C21.4173 10.2614 13.3623 7.36706 7.89652 5.4587C12.7282 10.7614 17.2853 16.3896 21.1539 21.4756L18.5635 28.2303"
       fill-rule="evenodd"
       fill="#566234"
       transform="translate(130.888695652174, 162.518347826087)"
       id="shape131" />
    <path
       style="fill:#6e6011;fill-opacity:1"
       d="M39.1356 0.0149415C33.07 4.10348 27.0861 7.13826 21.1837 9.11928C16.2739 10.7672 9.21265 12.4166 0 14.0677C8.10418 18.8647 13.932 22.5009 17.4834 24.9762C26.0812 30.969 31.6556 36.0806 34.2068 40.311C33.7415 37.0989 32.6643 34.2053 30.975 31.63C29.4473 29.301 25.5877 25.4159 20.0646 21.7271C17.6036 20.0835 13.2987 17.9305 7.14977 15.268C14.3497 14.2828 19.4593 13.2974 22.4786 12.3118C27.5581 10.6536 31.2861 8.51429 33.0483 7.10218C36.5817 4.27089 38.6108 1.90349 39.1356 0"
       fill-rule="evenodd"
       fill="#566234"
       transform="translate(138.289795509846, 250.303072617976)"
       id="shape141" />
    <path
       style="fill:#6e6011;fill-opacity:1"
       d="M0.0156522 0C2.13741 6.59995 3.67685 13.1417 4.63397 19.6253C5.72373 27.0073 4.55362 33.9312 1.12365 40.3969C2.96567 39.0346 4.54098 37.2042 5.84958 34.9058C8.62186 30.0365 7.834 24.9983 7.77537 22.6165C7.69901 19.5145 6.62052 14.5017 4.5399 7.57802C7.88576 10.4041 10.2893 12.3944 11.7505 13.5491C16.113 16.9963 19.956 19.5308 24.6223 19.6303C28.8545 19.7204 32.2172 19.0298 34.7106 17.5584C29.2879 18.1512 23.8518 17.1451 18.4023 14.5402C12.5025 11.7201 8.92141 7.75662 6.68151 5.95383C5.25418 4.80504 3.02701 2.82043 0 0"
       fill-rule="evenodd"
       fill="#566234"
       transform="translate(252.187826086956, 118.460869565217)"
       id="shape151" />
    <path
       style="fill:#6e6011;fill-opacity:1"
       d="M22.9711 0.0579095C19.1629 7.26122 16.0972 12.6069 13.7738 16.0951C12.0465 18.6884 8.7206 22.8813 4.70933 26.6338C3.95586 27.3387 2.38608 28.7166 0 30.7676C2.93365 30.2428 6.07874 28.6805 9.43526 26.081C13.2817 23.102 15.9014 19.2753 16.9005 17.4099C18.4609 14.4964 20.2871 10.5834 22.379 5.67092C23.3505 11.3668 24.4942 15.9339 25.81 19.3723C27.8384 24.6724 30.3856 28.2052 31.9729 29.9955C34.1354 32.4344 36.7234 34.1394 39.7369 35.1104C36.2112 30.5194 33.8279 27.1358 32.5872 24.9596C31.4004 22.8781 29.715 19.3863 27.7838 14.1022C26.6994 11.1352 25.0896 6.43445 22.9544 0"
       fill-rule="evenodd"
       fill="#566234"
       transform="translate(410.728200293632, 84.0127826086956)"
       id="shape161" />
    <path
       style="fill:#6e6011;fill-opacity:1"
       d="M39.3809 0C35.3331 2.57438 32.2679 5.4129 30.1852 8.51557C28.6165 10.8526 26.0038 15.2201 24.3313 21.9052C23.9297 23.5106 23.4288 26.1753 22.8287 29.8996C20.326 24.1454 18.3121 20.1753 16.787 17.989C14.7373 15.051 13.1656 12.5953 9.5087 8.59304C7.41539 6.30205 4.24582 4.25474 0 2.45113C2.61525 2.30462 4.88481 2.65679 6.8087 3.50765C8.77119 4.37558 12.0805 6.92614 15.3078 10.9315C16.9425 12.9602 19.1912 16.7308 22.0539 22.2433C23.302 15.7581 24.5985 11.3771 25.9435 9.10017C28.256 5.18533 30.9288 3.2372 32.5722 2.16939C34.307 1.04214 36.5766 0.319007 39.3809 0"
       fill-rule="evenodd"
       fill="#566234"
       transform="translate(425.446956521739, 497.844260869565)"
       id="shape171" />
    <path
       style="fill:#6e6011;fill-opacity:1"
       d="M5.45784 0.00704348C6.27219 7.38416 6.59045 12.9016 6.41262 16.5592C6.21725 20.5778 4.9425 26.9822 2.90929 36.2012C2.42244 38.4086 1.45268 42.0248 0 47.0497C6.4898 41.1991 11.3856 37.1157 14.6874 34.7995C19.3582 31.5228 22.4279 28.3327 29.9483 24.3892C33.3751 22.5923 36.5081 21.3479 39.3474 20.6562C36.8174 19.6297 33.713 19.5757 30.0344 20.4942C22.7705 22.3079 18.0601 26.9262 15.3839 28.9463C13.254 30.5542 10.0348 33.5383 5.72654 37.8986C8.01104 30.626 9.38512 25.3453 9.84877 22.0566C10.6654 16.264 10.3224 11.822 9.84808 9.39718C9.25768 6.37871 7.80209 3.24631 5.48132 0"
       fill-rule="evenodd"
       fill="#566234"
       transform="translate(278.35781085551, 449.432608695652)"
       id="shape181" />
    <path
       style="fill:#6e6011;fill-opacity:1"
       d="M86.5517 0C78.6947 3.98535 69.3295 7.77132 58.4562 11.3579C43.125 16.415 34.8273 17.077 24.3878 18.6942C17.4055 19.7758 9.27623 20.297 0 20.2577C2.73929 28.9851 5.79215 36.5357 9.15857 42.9095C15.1332 54.2215 20.6624 61.0831 24.2679 64.9908C31.8854 73.2467 38.8498 78.0643 43.1354 80.1871C51.1776 84.1706 58.2284 85.2126 61.9444 84.9786C70.0173 84.4704 77.2579 79.8116 79.6657 78.0495C85.8418 73.5295 87.6863 71.512 93.5834 65.8273C97.1939 62.347 100.253 59.1239 106.029 51.9194C107.257 50.3875 109.025 47.8342 111.331 44.2594C105.413 49.417 100.078 53.8197 95.3266 57.4677C84.9769 65.4138 76.3986 68.9535 70.3098 70.4985C62.628 72.4476 60.7418 71.6795 50.4192 67.6423C43.6899 65.0104 34.4989 56.0023 31.1244 52.2824C27.6506 48.4531 25.446 45.8935 20.4108 37.9912C19.5297 36.6084 18.2956 34.2078 16.7086 30.7894C22.4575 29.7968 28.1697 28.5707 33.8452 27.1112C41.7751 25.0719 48.4308 22.8159 60.4761 17.1635C69.3577 12.9956 69.2069 12.7676 76.3804 8.11396C80.6864 5.32055 84.0971 2.6242 86.6126 0.0249025"
       fill-rule="evenodd"
       fill="#566234"
       transform="translate(159.774159024141, 357.096057054564)"
       id="shape191" />
    <path
       style="fill:#6e6011;fill-opacity:1"
       d="M34.6981 0.0547854C25.1139 6.4063 17.3198 14.454 11.3156 24.1978C2.08964 39.1703 0.332629 52.4786 0.044981 61.5945C-0.149431 67.7556 0.0435394 79.9299 5.73846 93.1689C12.5762 109.065 21.6451 117.745 28.4263 123.54C32.6081 127.114 40.4761 132.895 52.6793 137.318C63.4703 141.229 69.9723 141.758 75.7428 142.234C81.3439 142.696 89.8113 142.522 99.9932 140.438C108.657 138.666 114.633 136.185 117.997 134.422C124.955 130.776 128.69 128.536 129.2 127.702C123.084 131.934 114.458 135.281 103.322 137.744C97.8002 138.965 90.3688 140.291 79.288 138.987C66.7469 137.512 61.1503 135.484 52.9976 131.705C41.075 126.178 33.6816 118.866 29.7463 114.853C25.8362 110.866 19.1796 103.23 13.8802 91.306C11.7926 86.6089 8.53232 77.6719 7.64542 66.4543C6.79123 55.6505 8.43486 46.36 9.52821 41.6207C11.9508 31.1193 15.8691 24.2137 18.2053 20.2483C22.4618 13.0234 27.9742 6.27401 34.7424 0"
       fill-rule="evenodd"
       fill="#566234"
       transform="translate(260.006757626291, 200.899181980219)"
       id="shape201" />
  </g>
  <path
     id="shape04"
     transform="translate(500.917034933652, 352.494747248368)"
     fill="#333333"
     fill-rule="evenodd"
     d="M13.116 1.58991C16.8882 1.26027 22.8729 0.489886 31.6912 0.14547C35.7125 -0.0115889 42.8774 -0.113461 52.2686 0.230123C58.5274 0.459105 62.7156 0.880251 65.3851 1.14069C70.0287 1.5937 72.2469 1.5003 75.2734 2.79591C76.7796 3.44069 77.2612 4.73615 77.6277 5.95438C78.122 7.59714 77.7388 9.20162 77.0917 11.3471C75.6401 16.1593 74.1086 17.8458 72.023 20.312C68.1526 24.8887 65.9671 26.1057 62.483 28.3803C60.3502 29.7727 56.3399 31.9026 50.526 33.221C44.6037 34.564 44.9155 34.229 37.6469 34.2956C34.887 34.3209 29.3189 34.0195 23.7008 32.5598C20.0621 31.6144 17.2525 31.0737 12.3764 28.1044C9.61231 26.4212 8.49272 25.6199 6.10123 23.1307C3.78851 20.7234 3.08204 19.2789 2.21818 17.6145C1.62843 16.4781 0.627523 14.4066 0.235574 11.4513C0.0969059 10.4057 -0.383661 7.73519 0.629487 5.6896C1.32339 4.28857 2.43813 3.83284 3.0947 3.55191C5.3877 2.57077 5.72461 2.51314 8.58862 2.11504C10.9668 1.78446 11.519 1.75048 13.1708 1.57934" />
  <ellipse
     id="ellipse490"
     transform="matrix(1 0 0.0022180732978182 1 298.154922395735 206.428173913043)"
     rx="52.2990986102527"
     ry="52.8782608695652"
     cx="52.2990986102527"
     cy="52.8782608695652"
     fill="#333333"
     fill-rule="evenodd" />
  <path
     id="shape05"
     transform="matrix(0.994058636583681 -0.108845836571243 0.111050732932276 0.993817221716337 610.949573091651 211.105565650014)"
     sodipodi:type="arc"
     sodipodi:rx="22.5580478196532"
     sodipodi:ry="51.0382936328204"
     sodipodi:cx="22.5580486925635"
     sodipodi:cy="51.0382980616554"
     sodipodi:start="6.28318530717959"
     sodipodi:end="6.27940999691937"
     sodipodi:open="true"
     d="M45.1159 50.8456C45.0689 22.677 34.9443 -0.0795505 22.4942 0.000209023C10.0441 0.0799686 -0.0234605 22.9658 4.10628e-5 51.1346C0.0235426 79.3035 10.1292 102.103 22.5793 102.077C35.0295 102.05 45.1161 79.2072 45.1161 51.0383"
     fill="#333333"
     fill-rule="evenodd" />
  <ellipse
     id="shape06"
     transform="matrix(1 0 0.0022180732978182 1 298.154922395735 206.428173913043)"
     rx="52.2990986102527"
     ry="52.8782608695652"
     cx="52.2990986102527"
     cy="52.8782608695652"
     fill="url(#gradient0)"
     fill-rule="evenodd" />
  <path
     id="shape07"
     transform="matrix(0.994058636583681 -0.108845836571243 0.111050732932276 0.993817221716337 610.949573091651 211.105565650014)"
     sodipodi:type="arc"
     sodipodi:rx="22.5580478196532"
     sodipodi:ry="51.0382936328204"
     sodipodi:cx="22.5580486925635"
     sodipodi:cy="51.0382980616554"
     sodipodi:start="6.28318530717959"
     sodipodi:end="6.27940999691937"
     sodipodi:open="true"
     d="M45.1159 50.8456C45.0689 22.677 34.9443 -0.0795505 22.4942 0.000209023C10.0441 0.0799686 -0.0234605 22.9658 4.10628e-5 51.1346C0.0235426 79.3035 10.1292 102.103 22.5793 102.077C35.0295 102.05 45.1161 79.2072 45.1161 51.0383"
     fill="url(#gradient1)"
     fill-rule="evenodd" />
  <path
     id="shape08"
     transform="translate(343.491886335298, 214.398360741768)"
     fill="url(#gradient2)"
     fill-rule="evenodd"
     d="M5.17594 1.95538C11.5226 -2.10664 25.495 -0.203687 37.169 11.1119C46.0857 19.7549 51.2577 31.8002 48.8768 41.751C46.952 49.7958 31.0941 50.5184 30.1412 40.3987C29.9382 38.2439 30.6812 28.5414 22.5812 22.466C14.3562 16.2969 1.83698 20.5074 0.2142 12.6474C-0.855298 7.46719 2.28065 3.80844 5.17594 1.95538Z" />
  <path
     id="shape09"
     transform="matrix(0.657535359489789 0.753423686262019 -0.753423686262019 0.657535359489789 645.491939503967 214.404740485311)"
     fill="url(#gradient3)"
     fill-rule="evenodd"
     d="M34.6631 10.8828C40.9547 14.6822 42.6265 15.5802 46.0865 18.2815C43.5737 24.549 37.4457 25.3176 34.0404 22.9972C29.2906 19.7607 28.4197 17.4332 19.0216 13.6652C10.282 10.1612 2.38557 11.4368 0.383463 5.40512C-0.427318 2.96253 0.130627 1.27279 1.28067 0C10.7958 0.39646 16.0448 2.57468 19.3648 3.67314C22.0175 4.55084 30.0614 8.10387 34.6631 10.8828Z" />
  <path
     id="shape010"
     transform="matrix(0.657535359489789 0.753423686262019 -0.753423686262019 0.657535359489789 645.38603290838 214.220126355313)"
     fill="url(#gradient4)"
     fill-rule="evenodd"
     d="M34.8718 10.9244C41.1634 14.7238 41.7877 15.0435 45.2478 17.7448C48.4507 22.2653 40.7749 27.4459 34.2682 23.0212C29.5154 19.7891 28.6284 17.4748 19.2304 13.7068C10.4907 10.2028 3.36804 11.601 0.682439 5.84113C-0.685629 2.90699 0.20893 1.01489 1.55926 0C11.0744 0.39646 16.2536 2.61627 19.5735 3.71474C22.2263 4.59244 30.2701 8.14547 34.8718 10.9244Z" />
</svg>
